<?xml version="1.0" standalone="no"?>
<!DOCTYPE svg PUBLIC "-//W3C//DTD SVG 20010904//EN"
 "http://www.w3.org/TR/2001/REC-SVG-20010904/DTD/svg10.dtd">
<svg version="1.0" xmlns="http://www.w3.org/2000/svg"
 width="900.000000pt" height="960.000000pt" viewBox="0 0 900.000000 960.000000"
 preserveAspectRatio="xMidYMid meet">
<metadata>
Created by potrace 1.10, written by Peter Selinger 2001-2011
</metadata>
<g transform="translate(0.000000,960.000000) scale(0.100000,-0.100000)"
fill="#000000" stroke="none">
<path d="M0 4800 l0 -4800 4500 0 4500 0 0 4800 0 4800 -4500 0 -4500 0 0
-4800z m5425 2317 c122 -2 146 -5 186 -25 56 -27 87 -72 235 -337 15 -27 47
-83 71 -123 24 -41 43 -75 43 -78 0 -2 21 -38 46 -81 25 -43 59 -100 74 -128
23 -41 119 -209 240 -420 196 -342 210 -370 210 -426 0 -61 -13 -90 -122 -274
-36 -60 -76 -128 -88 -150 -30 -54 -153 -265 -271 -465 -53 -91 -107 -183
-119 -205 -24 -43 -153 -265 -285 -490 -46 -77 -92 -156 -102 -175 -11 -19
-56 -96 -100 -170 -43 -75 -82 -142 -86 -150 -7 -16 -16 -31 -98 -166 -83
-138 -127 -137 -210 4 -27 46 -49 86 -49 88 0 2 -27 49 -60 105 -33 55 -60
102 -60 103 0 2 -33 60 -74 130 -77 132 -92 178 -81 245 4 23 47 110 102 203
136 233 286 490 298 509 6 9 21 36 34 60 13 24 58 102 101 174 42 71 121 207
175 300 94 162 176 302 385 660 187 319 203 349 203 383 1 21 -7 40 -21 55
l-23 22 -1302 5 c-766 3 -1310 9 -1322 14 -64 30 -98 74 -190 241 -15 28 -31
55 -35 60 -4 6 -23 39 -42 75 -20 36 -70 125 -112 199 -88 152 -93 181 -40
216 31 21 32 21 1190 18 637 -2 1222 -4 1299 -6z m-139 -1213 c17 -2 38 -12
46 -22 32 -36 29 -55 -18 -137 -25 -44 -59 -104 -76 -134 -16 -29 -42 -74 -57
-100 -15 -25 -30 -53 -34 -61 -4 -8 -16 -28 -27 -45 -11 -16 -23 -37 -27 -45
-25 -53 -106 -181 -130 -204 -65 -65 44 -61 -1388 -57 l-1300 3 -27 -22 c-41
-32 -37 -68 19 -164 25 -45 60 -106 76 -136 17 -30 48 -83 69 -118 21 -34 38
-64 38 -66 0 -3 27 -50 60 -106 33 -56 60 -103 60 -105 0 -2 19 -36 43 -77 24
-40 56 -95 71 -123 16 -27 73 -129 129 -225 55 -96 109 -191 120 -210 10 -19
41 -72 68 -118 27 -45 49 -84 49 -86 0 -3 27 -50 60 -106 33 -56 60 -103 60
-105 0 -2 27 -49 60 -105 33 -56 60 -103 60 -105 0 -2 19 -36 43 -77 63 -106
96 -164 140 -248 34 -66 38 -81 34 -122 -5 -42 -38 -114 -99 -218 -11 -19 -52
-89 -90 -155 -39 -66 -97 -166 -130 -223 -69 -117 -100 -142 -149 -122 -27 12
-49 44 -139 205 -23 40 -37 66 -172 300 -41 72 -115 200 -163 285 -48 85 -100
175 -115 200 -15 25 -40 67 -54 93 -15 27 -79 140 -143 250 -117 202 -214 373
-261 457 -14 25 -52 89 -84 143 -32 55 -58 100 -58 102 0 4 -78 142 -99 175
-24 39 -41 91 -41 133 0 46 31 113 125 272 39 66 74 127 78 135 4 8 13 24 20
35 7 11 50 86 96 165 187 320 323 555 417 717 11 17 41 70 67 116 57 98 103
147 155 163 27 8 391 10 1312 7 701 -2 1289 -6 1306 -9z m-1544 -1220 c48 -25
78 -64 156 -204 11 -19 63 -111 117 -205 54 -93 106 -184 115 -201 10 -17 71
-123 135 -235 65 -112 128 -222 140 -244 13 -22 63 -110 112 -196 49 -86 93
-162 96 -170 4 -8 17 -30 28 -49 40 -66 224 -388 348 -608 91 -162 123 -202
160 -202 37 0 66 33 142 165 35 60 69 119 76 130 7 11 16 27 20 35 4 8 46 82
95 164 48 81 88 150 88 152 0 2 26 47 59 101 32 54 118 202 191 328 73 127
177 304 230 395 217 371 282 483 306 527 112 199 160 268 208 298 l49 30 374
3 c366 3 375 2 409 -18 28 -18 34 -28 34 -56 0 -35 -20 -75 -149 -292 -34 -57
-61 -105 -61 -107 0 -2 -49 -86 -108 -187 -124 -209 -248 -423 -285 -488 -14
-25 -59 -103 -101 -173 -42 -71 -76 -130 -76 -132 0 -1 -34 -61 -76 -131 -71
-120 -110 -188 -349 -599 -103 -178 -128 -207 -202 -230 -51 -16 -114 -17
-887 -11 -532 5 -844 11 -866 18 -50 15 -94 61 -151 156 -27 46 -49 85 -49 87
0 2 -19 36 -43 77 -24 40 -55 93 -69 118 -14 25 -70 124 -125 220 -55 96 -111
193 -123 215 -12 22 -64 112 -115 200 -50 88 -103 180 -117 205 -14 25 -105
185 -203 355 -98 171 -187 326 -198 345 -10 19 -36 64 -57 100 -79 136 -101
176 -120 218 -18 40 -19 46 -4 73 8 17 25 34 37 40 14 6 166 7 401 4 306 -5
385 -9 408 -21z"/>
</g>
</svg>
