<svg xmlns="http://www.w3.org/2000/svg" version="1.1" width="96" height="102.4" viewBox="0 0 72 76.8" xmlns:xlink="http://www.w3.org/1999/xlink"><path d="M0 38.4v38.4h72V0H0zm43.4 -18.536c0.976 0.016 1.168 0.04 1.488 0.2 0.448 0.216 0.696 0.576 1.88 2.696 0.12 0.216 0.376 0.664 0.568 0.984 0.192 0.328 0.344 0.6 0.344 0.624 0 0.016 0.168 0.304 0.368 0.648s0.472 0.8 0.592 1.024c0.184 0.328 0.952 1.672 1.92 3.36 1.568 2.736 1.68 2.96 1.68 3.408 0 0.488 -0.104 0.72 -0.976 2.192 -0.288 0.48 -0.608 1.024 -0.704 1.2 -0.24 0.432 -1.224 2.12 -2.168 3.72 -0.424 0.728 -0.856 1.464 -0.952 1.64 -0.192 0.344 -1.224 2.12 -2.28 3.92 -0.368 0.616 -0.736 1.248 -0.816 1.4 -0.088 0.152 -0.448 0.768 -0.8 1.36 -0.344 0.6 -0.656 1.136 -0.688 1.2 -0.056 0.128 -0.128 0.248 -0.784 1.328 -0.664 1.104 -1.016 1.096 -1.68 -0.032 -0.216 -0.368 -0.392 -0.688 -0.392 -0.704s-0.216 -0.392 -0.48 -0.84c-0.264 -0.44 -0.48 -0.816 -0.48 -0.824 0 -0.016 -0.264 -0.48 -0.592 -1.04 -0.616 -1.056 -0.736 -1.424 -0.648 -1.96 0.032 -0.184 0.376 -0.88 0.816 -1.624 1.088 -1.864 2.288 -3.92 2.384 -4.072a55.784 55.784 0 0 1 1.08 -1.872c0.336 -0.568 0.968 -1.656 1.4 -2.4 0.752 -1.296 1.408 -2.416 3.08 -5.28 1.496 -2.552 1.624 -2.792 1.624 -3.064a0.6 0.6 0 0 0 -0.168 -0.44l-0.184 -0.176 -10.416 -0.04c-6.128 -0.024 -10.48 -0.072 -10.576 -0.112 -0.512 -0.24 -0.784 -0.592 -1.52 -1.928a6 6 0 0 0 -0.28 -0.48 254.86 254.86 0 0 0 -1.232 -2.192c-0.704 -1.216 -0.744 -1.448 -0.32 -1.728 0.248 -0.168 0.256 -0.168 9.52 -0.144 5.096 0.016 9.776 0.032 10.392 0.048m-1.112 9.704a0.64 0.64 0 0 1 0.368 0.176c0.256 0.288 0.232 0.44 -0.144 1.096l-0.608 1.072c-0.128 0.232 -0.336 0.592 -0.456 0.8 -0.12 0.2 -0.24 0.424 -0.272 0.488s-0.128 0.224 -0.216 0.36a4 4 0 0 0 -0.216 0.36c-0.2 0.424 -0.848 1.448 -1.04 1.632 -0.52 0.52 0.352 0.488 -11.104 0.456l-10.4 -0.024 -0.216 0.176c-0.328 0.256 -0.296 0.544 0.152 1.312 0.2 0.36 0.48 0.848 0.608 1.088 0.136 0.24 0.384 0.664 0.552 0.944 0.168 0.272 0.304 0.512 0.304 0.528 0 0.024 0.216 0.4 0.48 0.848s0.48 0.824 0.48 0.84 0.152 0.288 0.344 0.616c0.192 0.32 0.448 0.76 0.568 0.984 0.128 0.216 0.584 1.032 1.032 1.8l0.96 1.68c0.08 0.152 0.328 0.576 0.544 0.944 0.216 0.36 0.392 0.672 0.392 0.688 0 0.024 0.216 0.4 0.48 0.848s0.48 0.824 0.48 0.84 0.216 0.392 0.48 0.84 0.48 0.824 0.48 0.84 0.152 0.288 0.344 0.616c0.504 0.848 0.768 1.312 1.12 1.984 0.272 0.528 0.304 0.648 0.272 0.976q-0.06 0.5 -0.792 1.744c-0.088 0.152 -0.416 0.712 -0.72 1.24 -0.312 0.528 -0.776 1.328 -1.04 1.784 -0.552 0.936 -0.8 1.136 -1.192 0.976 -0.216 -0.096 -0.392 -0.352 -1.112 -1.64 -0.184 -0.32 -0.296 -0.528 -1.376 -2.4 -0.328 -0.576 -0.92 -1.6 -1.304 -2.28s-0.8 -1.4 -0.92 -1.6 -0.32 -0.536 -0.432 -0.744a156 156 0 0 0 -1.144 -2c-0.936 -1.616 -1.712 -2.984 -2.088 -3.656 -0.112 -0.2 -0.416 -0.712 -0.672 -1.144 -0.256 -0.44 -0.464 -0.8 -0.464 -0.816 0 -0.032 -0.624 -1.136 -0.792 -1.4a2.2 2.2 0 0 1 -0.328 -1.064c0 -0.368 0.248 -0.904 1 -2.176a46 46 0 0 0 0.784 -1.36c0.056 -0.088 0.4 -0.688 0.768 -1.32 1.496 -2.56 2.584 -4.44 3.336 -5.736 0.088 -0.136 0.328 -0.56 0.536 -0.928 0.456 -0.784 0.824 -1.176 1.24 -1.304 0.216 -0.064 3.128 -0.08 10.496 -0.056 5.608 0.016 10.312 0.048 10.448 0.072m-12.352 9.76c0.384 0.2 0.624 0.512 1.248 1.632 0.088 0.152 0.504 0.888 0.936 1.64 0.432 0.744 0.848 1.472 0.92 1.608 0.08 0.136 0.568 0.984 1.08 1.88 0.52 0.896 1.024 1.776 1.12 1.952 0.104 0.176 0.504 0.88 0.896 1.568s0.744 1.296 0.768 1.36c0.032 0.064 0.136 0.24 0.224 0.392 0.32 0.528 1.792 3.104 2.784 4.864 0.728 1.296 0.984 1.616 1.28 1.616s0.528 -0.264 1.136 -1.32c0.28 -0.48 0.552 -0.952 0.608 -1.04s0.128 -0.216 0.16 -0.28 0.368 -0.656 0.76 -1.312c0.384 -0.648 0.704 -1.2 0.704 -1.216s0.208 -0.376 0.472 -0.808c0.256 -0.432 0.944 -1.616 1.528 -2.624 0.584 -1.016 1.416 -2.432 1.84 -3.16a286 286 0 0 0 2.448 -4.216c0.896 -1.592 1.28 -2.144 1.664 -2.384l0.392 -0.24 2.992 -0.024c2.928 -0.024 3 -0.016 3.272 0.144 0.224 0.144 0.272 0.224 0.272 0.448 0 0.28 -0.16 0.6 -1.192 2.336 -0.272 0.456 -0.488 0.84 -0.488 0.856s-0.392 0.688 -0.864 1.496c-0.992 1.672 -1.984 3.384 -2.28 3.904 -0.112 0.2 -0.472 0.824 -0.808 1.384 -0.336 0.568 -0.608 1.04 -0.608 1.056 0 0.008 -0.272 0.488 -0.608 1.048 -0.568 0.96 -0.88 1.504 -2.792 4.792 -0.824 1.424 -1.024 1.656 -1.616 1.84 -0.408 0.128 -0.912 0.136 -7.096 0.088 -4.256 -0.04 -6.752 -0.088 -6.928 -0.144 -0.4 -0.12 -0.752 -0.488 -1.208 -1.248 -0.216 -0.368 -0.392 -0.68 -0.392 -0.696s-0.152 -0.288 -0.344 -0.616c-0.192 -0.32 -0.44 -0.744 -0.552 -0.944s-0.56 -0.992 -1 -1.76 -0.888 -1.544 -0.984 -1.72 -0.512 -0.896 -0.92 -1.6l-0.936 -1.64a1846.164 1846.164 0 0 0 -3.664 -6.4c-0.632 -1.088 -0.808 -1.408 -0.96 -1.744 -0.144 -0.32 -0.152 -0.368 -0.032 -0.584a0.8 0.8 0 0 1 0.296 -0.32c0.112 -0.048 1.328 -0.056 3.208 -0.032 2.448 0.04 3.08 0.072 3.264 0.168"/></svg>